<svg width="268" height="179" viewBox="0 0 268 179" fill="none" xmlns="http://www.w3.org/2000/svg">
<path fill-rule="evenodd" clip-rule="evenodd" d="M195.417 47.1886C193.835 47.5108 192.31 48.7372 191.709 50.171C191.49 50.6932 191.259 53.6689 191.447 53.5528C191.519 53.5078 191.578 53.5803 191.578 53.7139C191.578 54.0884 192.416 56.0666 192.901 56.8359C193.14 57.2151 193.281 57.6132 193.215 57.7206C193.146 57.832 193.173 57.8676 193.277 57.8031C193.468 57.6843 194.079 58.4838 194.079 58.8543C194.079 58.9731 194.138 59.0335 194.21 58.9892C194.406 58.8677 195.081 59.7967 194.951 60.0075C194.889 60.1069 194.92 60.1391 195.017 60.0787C195.188 59.9726 195.555 60.2968 195.853 60.817C195.957 60.9996 195.931 61.0224 195.749 60.907C195.614 60.8217 195.464 60.7459 195.417 60.7392C194.821 60.6539 194.195 60.421 194.195 60.2854C194.195 60.1908 194.126 60.1565 194.042 60.2089C193.958 60.2606 193.507 60.1908 193.039 60.0538C190.005 59.1617 187.323 59.3906 185.669 60.6814C185.442 60.8587 185.195 60.9667 185.122 60.9204C185.048 60.8748 184.994 60.9352 185.002 61.054C185.011 61.1735 184.801 61.7219 184.535 62.273C183.698 64.0108 183.599 68.2531 184.358 69.8554C185.297 71.839 186.953 72.6263 190.24 72.6525C191.617 72.6639 192.555 72.6082 192.422 72.5243C192.244 72.4115 192.264 72.376 192.504 72.3733C192.676 72.3719 193.54 72.1665 194.423 71.9175C196.794 71.2462 196.664 71.2315 196.167 72.1236C195.922 72.5612 195.654 72.8472 195.549 72.7821C195.443 72.7163 195.413 72.7485 195.48 72.8579C195.624 73.0902 194.361 75.7074 194.164 75.5852C194.087 75.5382 194.067 75.6087 194.118 75.743C194.169 75.8765 194.052 76.4115 193.858 76.9317C192.998 79.2341 193.048 80.9122 194.018 82.3601C194.294 82.7716 194.481 83.169 194.435 83.2435C194.389 83.3187 194.461 83.3375 194.595 83.2865C194.728 83.2348 194.948 83.3341 195.083 83.5066C195.308 83.7939 195.303 83.8 195.02 83.5771C194.747 83.363 194.724 83.3697 194.824 83.6315C194.887 83.7946 195.044 83.8872 195.173 83.8376C195.302 83.7879 195.901 83.9765 196.503 84.2571C197.105 84.537 197.821 84.8055 198.093 84.8532C198.367 84.9008 198.985 85.0713 199.468 85.2317C200.148 85.4586 200.662 85.4976 201.763 85.4069C202.543 85.3425 203.37 85.2861 203.6 85.2814C203.882 85.2754 203.946 85.227 203.795 85.1337C203.63 85.0317 203.664 84.9653 203.927 84.882C206.048 84.2074 207.703 77.6614 206.703 73.895C206.582 73.4379 206.615 73.4526 207.267 74.146C207.648 74.5515 207.912 74.967 207.854 75.069C207.796 75.1717 207.812 75.1979 207.889 75.1274C208.051 74.9811 210.534 77.2653 210.461 77.4922C210.435 77.5741 210.491 77.5929 210.587 77.5332C210.83 77.3828 211.665 77.9621 211.528 78.1856C211.465 78.2863 211.498 78.3165 211.601 78.2534C211.702 78.1903 212.15 78.2944 212.595 78.4857C216.377 80.1101 219.128 78.8468 221.297 74.4911C223.968 69.1264 221.624 66.1313 214.228 65.4614C213.11 65.3601 212.059 65.252 211.831 65.2157C211.791 65.209 212.72 64.6029 213.895 63.8679C220.774 59.5672 221.523 55.5981 216.148 51.9317C211.983 49.091 208.457 50.7335 205.291 56.9882C204.927 57.7092 204.606 58.322 204.581 58.3495C204.555 58.3777 204.527 58.0555 204.519 57.6346C204.343 48.8466 201.77 45.8951 195.417 47.1886ZM179.599 55.3276C179.599 56.0968 179.63 56.3895 179.667 55.9787C179.704 55.5672 179.703 54.9382 179.666 54.5798C179.628 54.222 179.598 54.5583 179.599 55.3276ZM179.595 58.2119C179.595 58.8369 179.626 59.0926 179.665 58.7798C179.704 58.4677 179.704 57.9562 179.665 57.6434C179.626 57.3312 179.595 57.587 179.595 58.2119ZM204.507 62.2602C207.091 63.1422 208.204 65.8266 206.968 68.1961C204.615 72.7102 197.965 70.3904 199.071 65.4406C199.614 63.01 202.227 61.4816 204.507 62.2602ZM208.273 78.5857C208.096 78.83 207.867 78.9697 207.75 78.9039C207.591 78.8139 207.59 78.8388 207.749 79.0113C207.914 79.1905 208.041 79.1361 208.381 78.7394L208.806 78.2447L209.309 78.5689L209.811 78.8931L209.479 78.5159C209.045 78.0252 208.665 78.0474 208.273 78.5857Z" fill="#F6882C"/>
<path fill-rule="evenodd" clip-rule="evenodd" d="M97.0975 51.9145C96.4255 52.0844 94.6982 52.5072 93.259 52.8536C91.6859 53.2329 90.5616 53.594 90.441 53.7585C90.2843 53.9733 90.2179 53.9833 90.1375 53.8054C90.0806 53.6799 90.0779 53.7746 90.1308 54.0149C90.3124 54.8365 90.5904 55.1943 91.3006 55.5225C92.6755 56.1568 92.7251 56.3267 92.7974 60.6717C92.8483 63.7205 92.8122 64.5683 92.6239 64.8012C92.4778 64.9818 92.4671 65.0462 92.5964 64.9683C92.7653 64.8663 92.8014 74.6417 92.6373 76.1272C92.6266 76.2239 92.6299 77.4677 92.6447 78.8927C92.6748 81.8395 92.6775 81.8335 91.312 82.4396C90.8169 82.6591 90.3519 82.9364 90.2782 83.0558C90.1402 83.2794 90.0484 84.4715 90.1791 84.3413C90.2186 84.301 90.4156 84.3836 90.6159 84.5245C90.9167 84.7353 91.8929 84.7803 96.1461 84.7803H101.311L101.704 84.3614C102.386 83.6331 102.161 83.0364 100.99 82.4752C99.4532 81.7388 99.5624 82.9894 99.608 66.6679C99.6562 49.5444 99.9376 51.197 97.0975 51.9145ZM178.117 51.6521C178.07 51.6984 176.467 52.1367 174.554 52.6254C170.596 53.637 170.208 53.8142 170.353 54.5431C170.414 54.8492 170.371 55.0755 170.241 55.1339C170.111 55.1916 170.13 55.2184 170.292 55.203C170.698 55.1641 171.514 55.6185 171.393 55.8152C171.333 55.9125 171.368 55.94 171.47 55.8769C172.361 55.3252 172.766 56.5616 172.714 59.6749C172.69 61.1375 172.724 62.4236 172.792 62.5324C172.859 62.6418 172.832 62.7814 172.732 62.8432C172.633 62.9049 172.562 62.8908 172.576 62.8116C172.631 62.4908 172.547 62.3297 172.424 62.5236C172.327 62.6753 172.024 62.6371 171.249 62.3733C168.895 61.5725 165.388 61.8081 163 62.9277C162.061 63.3674 161.821 63.4204 161.588 63.2372C161.344 63.0465 161.334 63.0546 161.522 63.2949C161.705 63.5305 161.633 63.6587 161.052 64.1252C160.342 64.6978 160.061 64.8247 160.276 64.4763C160.354 64.3501 160.323 64.3219 160.195 64.4005C160.084 64.4703 160.03 64.5897 160.077 64.6663C160.183 64.8374 159.572 65.4174 159.434 65.2785C159.379 65.2234 159.346 65.3221 159.361 65.4966C159.375 65.6765 159.286 65.7933 159.156 65.7658C159.028 65.7396 158.963 65.7805 159.01 65.8571C159.057 65.9336 158.787 66.4666 158.409 67.0412C155.928 70.819 155.746 76.926 158.004 80.6836C158.523 81.5455 158.482 81.9093 157.938 81.2844C157.745 81.0622 157.737 81.079 157.888 81.3925C157.986 81.5959 158.027 81.8019 157.978 81.8503C157.931 81.8979 158.071 81.9033 158.29 81.8617C158.683 81.7872 159.795 82.7048 159.815 83.1196C159.819 83.2156 159.895 83.2948 159.984 83.2948C160.238 83.2948 161.909 84.3265 161.913 84.4849C161.915 84.5628 161.826 84.5702 161.715 84.5017C161.585 84.4212 161.561 84.4541 161.647 84.5937C161.734 84.734 161.841 84.7507 161.951 84.6407C162.044 84.5474 162.277 84.5124 162.469 84.5628C162.742 84.6339 162.768 84.6897 162.585 84.8159C162.423 84.9293 162.464 84.9468 162.722 84.8749C162.926 84.8179 163.295 84.8487 163.544 84.9441C165.825 85.8127 170.056 84.8655 172.022 83.0464C172.446 82.6538 172.809 82.3524 172.83 82.3765C172.85 82.4007 172.912 82.7947 172.966 83.2525C173.077 84.1876 173.155 84.3668 173.67 84.8763C174.011 85.2132 174.104 85.222 175.259 85.0226C175.934 84.9058 177.624 84.6353 179.016 84.4205C181.93 83.9721 182.557 83.717 182.315 83.0793C182.114 82.5511 182.115 82.4618 182.318 82.588C182.612 82.7699 182.654 82.4242 182.39 81.9812C182.248 81.7422 182.173 81.6818 182.224 81.8469C182.274 82.012 182.228 82.2013 182.121 82.2671C182.004 82.3396 181.976 82.3074 182.052 82.1852C182.13 82.059 182.058 81.9939 181.861 82.0114C181.148 82.0731 180.742 81.9798 180.864 81.7818C180.941 81.6576 180.912 81.6274 180.791 81.7026C180.437 81.9214 179.903 81.4683 179.723 80.7951C179.611 80.3769 179.546 75.2277 179.547 66.6827C179.548 59.2829 179.546 52.9778 179.544 52.6724C179.537 51.8682 178.582 51.1856 178.117 51.6521ZM54.6114 53.3732C54.0902 53.6175 54.0319 55.2386 54.5444 55.2386C54.6985 55.2386 54.7555 55.3218 54.6825 55.4399C54.6067 55.5621 54.6342 55.5943 54.7515 55.5225C55.0657 55.3278 55.9166 55.5984 55.6318 55.8024C55.4543 55.9293 55.4717 55.9467 55.7022 55.8722C56.1712 55.7212 56.4874 55.9132 56.9169 56.6099C57.4127 57.4127 57.6526 64.0776 57.2057 64.6206C57.0342 64.828 57.0241 64.9287 57.1688 64.9777C57.6626 65.1442 57.4141 81.4328 56.9189 81.3301C56.8084 81.3072 56.7561 81.3878 56.8023 81.5086C56.8486 81.6301 56.6496 81.8697 56.3601 82.0409C56.07 82.2127 55.8328 82.3074 55.8328 82.2517C55.8328 82.1966 55.5293 82.3067 55.1575 82.4967C54.4098 82.8786 54.196 83.3579 54.4607 84.056C54.5572 84.3104 54.6302 84.5574 54.6235 84.6058C54.6168 84.6534 56.7112 84.7125 59.2787 84.7366C61.8461 84.7601 64.5422 84.7997 65.2698 84.8239C66.4282 84.8622 66.6446 84.8199 67.0017 84.4829C67.2262 84.2715 67.4614 84.1305 67.5237 84.1688C67.5867 84.2077 67.6289 83.9614 67.6175 83.621C67.594 82.9149 67.0815 82.4202 66.2011 82.2544C65.5143 82.1255 64.916 81.4925 64.7392 80.7078C64.4551 79.4452 64.6433 57.3154 64.9442 56.618C65.1948 56.0374 66.3498 55.2386 66.9381 55.2386C67.0352 55.2386 67.2014 55.0614 67.3059 54.8452C67.5579 54.3257 67.6878 53.4759 67.4969 53.594C67.4138 53.6457 67.2235 53.5645 67.0734 53.4141C66.723 53.063 55.3538 53.0261 54.6114 53.3732ZM99.8458 53.9276C99.8478 54.3116 99.8833 54.4485 99.9256 54.231C99.9671 54.0135 99.9651 53.6994 99.9215 53.5322C99.878 53.3651 99.8438 53.543 99.8458 53.9276ZM144.25 61.6544C144.466 61.6967 144.82 61.6967 145.035 61.6544C145.252 61.6128 145.075 61.5792 144.643 61.5792C144.211 61.5792 144.034 61.6128 144.25 61.6544ZM77.7305 62.0759C76.3523 62.2766 74.8649 62.7895 74.0488 63.3446C73.5215 63.7037 73.3366 63.752 73.1175 63.5882C72.8977 63.4231 72.8837 63.4278 73.0458 63.6111C73.2019 63.7889 73.0974 63.993 72.5708 64.536C71.0378 66.1189 70.3745 69.1496 71.0854 71.3257C71.2435 71.8111 71.3192 72.2964 71.2536 72.4031C71.1825 72.5186 71.212 72.5494 71.3259 72.479C71.5511 72.3393 71.9323 72.9562 71.748 73.1609C71.6797 73.2368 71.7165 73.2455 71.8311 73.1804C71.945 73.1146 72.1018 73.165 72.1795 73.2925C72.2579 73.4194 72.6566 73.7892 73.0659 74.1141C73.616 74.5504 73.7527 74.7464 73.5892 74.8646C73.4337 74.9767 73.4606 74.9948 73.677 74.9243C74.0321 74.8095 75.5764 75.5043 75.4444 75.7191C75.3962 75.7976 75.4592 75.8245 75.5838 75.7802C75.8303 75.6916 78.576 76.6206 78.4487 76.7488C78.4058 76.7917 78.5954 76.8428 78.8701 76.8629C79.6627 76.9199 82.3468 78.3779 82.1049 78.6202C82.0526 78.6726 82.1176 78.8015 82.2483 78.9068C82.5263 79.131 82.7789 80.0607 82.5618 80.0607C82.4808 80.0607 82.4466 80.2822 82.4868 80.5534C82.6724 81.8241 80.8084 82.8102 78.578 82.6209C77.2333 82.5074 75.6421 81.9073 75.8391 81.5885C75.9014 81.4871 75.8726 81.4542 75.7747 81.5146C75.5067 81.6811 74.42 80.5011 73.3688 78.9021C72.4401 77.4905 71.7547 76.9998 71.1933 77.3475C71.0894 77.412 71.0526 77.3274 71.1048 77.1415C71.1531 76.9683 70.9916 77.2361 70.7457 77.7362C70.3062 78.6316 70.3022 78.6786 70.4764 80.6897C70.5735 81.8134 70.6037 82.8202 70.5434 82.9263C70.4831 83.033 70.4978 83.0612 70.5769 82.9894C70.6553 82.9182 70.8348 83.025 70.9762 83.2263C71.1169 83.4277 71.6991 83.8137 72.2686 84.0842C73.0116 84.4359 73.2153 84.5997 72.9882 84.6608C72.8133 84.7078 72.9058 84.7366 73.1939 84.7252C73.8793 84.6977 75.5489 84.9696 75.5496 85.1085C75.5503 85.326 80.2041 85.2783 81.6084 85.0468C83.0228 84.8132 84.7635 84.1486 85.3477 83.619C85.5125 83.4693 85.7423 83.4069 85.8596 83.4794C85.9869 83.5579 86.0271 83.5378 85.9594 83.4284C85.8978 83.3284 85.9567 83.1559 86.09 83.0451C86.2756 82.8907 86.3567 82.8961 86.4324 83.0686C86.5001 83.223 86.5195 83.2109 86.4941 83.0323C86.4733 82.888 86.6696 82.4906 86.9302 82.1483C88.6287 79.9177 88.8665 76.5024 87.4689 74.3873C87.215 74.002 87.0066 73.5905 87.0066 73.4731C87.0066 73.3549 86.9503 73.2938 86.8813 73.3361C86.7306 73.4294 86.3326 72.9864 86.4559 72.8629C86.5028 72.8159 86.4431 72.775 86.3232 72.773C85.9112 72.7656 84.7614 71.9748 84.9725 71.8439C85.1132 71.7567 85.0877 71.6849 84.8894 71.609C84.6998 71.5358 84.6462 71.5674 84.7286 71.7016C84.8137 71.8386 84.7554 71.8661 84.5491 71.7869C84.3816 71.7225 84.2073 71.6701 84.1611 71.6701C84.1156 71.6701 84.1209 71.6003 84.1739 71.515C84.2261 71.4298 84.1718 71.3687 84.0533 71.3801C83.3551 71.4452 77.8236 69.3073 77.5522 68.8676C77.4564 68.7119 77.4839 68.6871 77.6427 68.7857C77.7955 68.8797 77.829 68.8589 77.7452 68.7226C77.6755 68.6099 77.5489 68.5609 77.4638 68.6139C76.8293 69.0066 76.503 66.6532 77.0605 65.702C77.7814 64.4723 81.2681 63.8997 81.321 65.0026C81.3297 65.1818 81.3672 65.208 81.4222 65.0724C81.5789 64.6837 83.4054 66.0068 83.398 66.5042C83.3966 66.6048 83.3209 66.5699 83.2298 66.4256C83.1387 66.2813 82.9638 66.1598 82.8399 66.1558C82.7166 66.1511 82.6369 66.047 82.6637 65.9242C82.6898 65.8014 82.6382 65.7463 82.5484 65.802C82.4104 65.8873 82.4037 66.0363 82.5149 66.5787C82.5223 66.6142 82.6369 66.5532 82.7695 66.4431C82.9565 66.2873 83.0349 66.3048 83.1173 66.5196C83.1762 66.6726 83.2975 66.7518 83.3879 66.6961C83.4777 66.6404 83.6747 66.7706 83.8248 66.9861C84.1337 67.4278 84.1859 67.7238 83.926 67.5634C83.8255 67.501 83.7993 67.5755 83.863 67.7426C83.9414 67.9467 84.009 67.9688 84.1015 67.8205C84.2777 67.5345 84.5129 67.9218 84.3427 68.2179C84.2737 68.338 84.2831 68.3763 84.3628 68.3038C84.4432 68.2306 84.6321 68.3488 84.7835 68.5656C84.935 68.7831 85.1762 68.9918 85.3202 69.0301C86.9537 69.4657 87.414 69.1133 87.4126 67.4271C87.4113 65.4469 87.1446 64.1682 86.6187 63.6185C86.3688 63.3573 86.2294 63.1083 86.3091 63.0653C86.3889 63.0224 86.3634 63.0083 86.2522 63.0338C86.1416 63.06 85.5092 62.8922 84.8465 62.6612C82.8888 61.9793 80.0172 61.743 77.7305 62.0759ZM112.103 62.0605C107.512 62.772 104.096 65.8457 104.888 68.5528C105.01 68.969 105.113 69.4281 105.117 69.5724C105.121 69.7168 105.202 69.8383 105.298 69.8423C105.394 69.847 105.803 70.0235 106.207 70.2356C108.55 71.4647 110.832 69.9524 111.23 66.9076C111.377 65.7832 112.284 64.7757 113.05 64.8878C113.343 64.9314 113.524 64.8938 113.467 64.8012C113.349 64.6099 115.096 64.8153 115.53 65.0435C116.052 65.3187 116.755 66.2974 116.668 66.6297C116.622 66.8062 116.658 66.9049 116.748 66.8492C116.848 66.7874 116.893 67.5929 116.862 68.9032C116.834 70.1799 116.743 71.0633 116.639 71.07C116.543 71.0767 116.14 71.1761 115.742 71.2908C115.344 71.405 114.873 71.4513 114.695 71.3929C114.448 71.313 114.429 71.3284 114.612 71.46C114.912 71.6741 113.895 71.944 113.546 71.7426C113.424 71.6714 113.386 71.6822 113.462 71.7647C113.623 71.9426 110.115 73.1012 109.782 72.9804C109.657 72.9347 109.597 72.9663 109.649 73.0502C109.7 73.1341 109.506 73.3012 109.216 73.4214C108.926 73.5415 108.25 73.9047 107.714 74.2282C106.651 74.8693 106.523 74.9189 106.711 74.6149C106.788 74.4887 106.758 74.4605 106.631 74.539C106.518 74.6088 106.462 74.7236 106.506 74.7948C106.549 74.8652 106.21 75.2922 105.751 75.7439C103.692 77.7697 103.211 80.536 104.555 82.6162C104.859 83.0854 105.111 83.5284 105.115 83.6002C105.12 83.6727 105.163 83.7224 105.211 83.711C105.259 83.6996 105.808 83.9687 106.432 84.3097C109.411 85.9375 112.968 85.5368 116.095 83.2223C117.224 82.3866 117.181 82.3987 117.31 82.8934C117.365 83.1055 117.463 83.2263 117.528 83.1612C117.593 83.0961 117.516 82.8444 117.356 82.6007C117.197 82.3571 117.133 82.1584 117.214 82.1584C117.549 82.1584 117.97 83.4062 117.735 83.7063C117.541 83.9567 117.547 83.9654 117.79 83.7761C118.067 83.5593 118.795 84.0479 118.554 84.2889C118.504 84.3393 118.597 84.4903 118.762 84.6245C119.019 84.8333 119.04 84.8326 118.912 84.6199C118.795 84.4252 118.835 84.4017 119.097 84.5118C120.251 84.9984 120.785 85.1152 121.885 85.1219C124.716 85.1401 127.688 83.1364 126.984 81.6838C126.738 81.175 126.602 81.1508 125.276 81.3791C124.799 81.4609 124.579 81.4032 124.273 81.1153C123.812 80.6823 123.845 81.2133 123.81 73.6805C123.774 66.0182 123.253 64.485 120.149 62.8948C118.558 62.0799 114.616 61.6712 112.103 62.0605ZM142.665 62.0618C142.297 62.1551 141.6 62.4216 141.115 62.6532C140.631 62.8854 140.107 63.0358 139.953 62.9861C139.708 62.9089 139.705 62.9217 139.932 63.0855C140.185 63.2681 140.139 63.3043 139.583 63.358C139.439 63.3714 139.338 63.4681 139.358 63.5715C139.378 63.6748 139.005 64.1293 138.529 64.5804L137.664 65.4006V64.0662C137.664 61.6826 137.823 61.7161 132.685 63.013C130.599 63.5392 128.813 63.9205 128.715 63.8601C128.617 63.799 128.582 63.8232 128.638 63.9125C128.693 64.0024 128.598 64.2629 128.425 64.4911C128.052 64.9865 128.494 65.6275 129.657 66.2833C130.011 66.482 130.386 66.8351 130.492 67.068C130.744 67.6211 130.761 76.2151 130.51 76.2151C130.414 76.2151 130.345 76.4709 130.356 76.783L130.377 77.3509L130.51 76.8266C130.592 76.5051 130.651 77.2609 130.664 78.7853C130.677 80.2608 130.607 81.4388 130.493 81.6885C130.279 82.1617 129.201 82.7518 128.884 82.5699C128.771 82.5047 128.736 82.5155 128.807 82.5933C128.877 82.6719 128.811 82.8263 128.659 82.937C128.407 83.1223 128.344 83.5083 128.439 84.2896C128.458 84.4527 128.52 84.5749 128.576 84.5601C128.877 84.4849 129.981 84.8226 129.894 84.9642C129.838 85.0555 130.012 85.1246 130.282 85.1179C130.713 85.1072 130.73 85.087 130.423 84.9555C130.216 84.8662 131.994 84.7997 134.79 84.7924C139.899 84.7796 140.122 84.7407 140.353 83.8197C140.522 83.1438 140.199 82.7417 139.229 82.4188C137.743 81.9241 137.794 82.1906 137.771 74.7337L137.751 68.195L138.146 67.8258C138.363 67.6231 138.62 67.5063 138.717 67.5661C138.814 67.6265 138.872 67.5714 138.846 67.4439C138.747 66.9646 140.59 66.2511 141.929 66.2511C143.379 66.2511 144.105 66.5693 144.901 67.5526L145.428 68.2058L145.482 72.8387C145.518 75.8755 145.477 77.4355 145.364 77.365C145.268 77.3059 145.305 77.4885 145.445 77.7704C146.204 79.2948 145.329 82.5081 144.156 82.5081C143.189 82.5081 142.722 83.7304 143.422 84.4306C143.809 84.8192 153.17 84.9796 154.13 84.6138C155.351 84.1486 155.144 83.0129 153.725 82.3967C152.296 81.7758 152.339 82.008 152.269 74.4672C152.216 68.8884 152.163 67.7829 151.914 67.0485C151.751 66.574 151.658 66.0235 151.707 65.8249C151.754 65.6268 151.746 65.5704 151.688 65.6993C151.618 65.8537 151.428 65.6745 151.132 65.1751C150.884 64.7576 150.579 64.3112 150.452 64.183C150.326 64.0548 150.275 63.8661 150.339 63.7628C150.403 63.6587 150.374 63.6252 150.274 63.6869C150.174 63.7487 149.889 63.6386 149.642 63.4433C148.114 62.2397 144.66 61.5557 142.665 62.0618ZM169.169 64.9737C169.102 65.1489 169.153 65.1536 169.405 64.9952C169.798 64.7502 170.815 65.1039 170.815 65.4859C170.815 65.6181 170.898 65.7268 171 65.7268C171.101 65.7268 171.128 65.6282 171.06 65.508C170.991 65.3879 171.19 65.5255 171.502 65.8141C172.2 66.4619 172.617 67.2338 172.504 67.6701C172.45 67.8735 172.489 67.9561 172.602 67.8849C172.728 67.8077 172.75 68.0044 172.671 68.4964C172.599 68.9495 172.623 69.2227 172.733 69.2227C172.96 69.2227 172.949 73.8966 172.722 74.0376C172.633 74.0926 172.568 74.3101 172.577 74.5209C172.593 74.8787 172.604 74.8753 172.74 74.4672C172.83 74.1953 172.882 74.9914 172.876 76.5649C172.868 79.1203 172.659 80.0762 172.176 79.7768C172.058 79.7036 172.032 79.7365 172.109 79.8627C172.358 80.2655 170.418 80.9656 169.054 80.9656C167.15 80.9656 164.65 79.472 165.005 78.5464C165.078 78.3551 165.049 78.2973 164.919 78.3772C163.888 79.0156 162.999 72.2789 163.746 69.4852C164.099 68.1662 164.805 66.6008 165.048 66.6008C165.149 66.6008 165.212 66.5122 165.188 66.4041C165.111 66.0537 166.794 64.9657 167.433 64.9522C167.757 64.9455 168.022 64.8784 168.022 64.8032C168.023 64.728 168.3 64.6857 168.639 64.7086C169.055 64.7368 169.226 64.822 169.169 64.9737ZM169.801 65.1355C169.963 65.1838 170.135 65.3563 170.183 65.5188C170.247 65.7329 170.261 65.7188 170.236 65.4664C170.215 65.263 170.056 65.1039 169.853 65.0831C169.602 65.0576 169.587 65.0717 169.801 65.1355ZM116.205 80.2648C113.977 82.2698 111.033 81.6778 110.687 79.1552C110.357 76.7454 112.209 74.9485 115.766 74.2262L116.814 74.0134L116.865 76.8186L116.917 79.6237L116.205 80.2648ZM208.409 78.6685C208.096 79.0156 208.098 79.0606 208.496 80.3729C209.47 83.5801 210.125 87.2277 209.729 87.2277C209.61 87.2277 209.649 87.3532 209.824 87.5277C210.19 87.8949 210.074 94.0697 209.649 96.7473C209.311 98.8879 209.714 99.5122 211.109 99.0121C211.451 98.8893 212.398 98.5785 213.213 98.3207C218.51 96.646 222.72 93.0689 225.088 88.2339C225.547 87.2968 225.955 86.5886 225.995 86.6604C226.035 86.7323 226.044 86.694 226.016 86.5759C225.987 86.4571 226.133 85.7046 226.34 84.9024C226.846 82.9424 226.649 82.3329 225.508 82.3329C224.537 82.3329 222.377 82.7551 221.55 83.1062C220.733 83.4532 220.34 83.4572 220.793 83.1142C220.979 82.9733 221.047 82.8578 220.945 82.8578C220.721 82.8578 220.335 83.2921 220.454 83.4103C220.5 83.4566 220.205 83.6794 219.798 83.9056C219.391 84.1312 218.587 84.6762 218.012 85.1166C217.436 85.5562 216.9 85.8952 216.821 85.8684C216.741 85.8422 216.719 85.8885 216.77 85.9717C216.901 86.1839 215.754 87.2639 215.573 87.0995C215.492 87.0256 215.482 87.0639 215.551 87.1847C215.626 87.3143 215.435 87.7083 215.084 88.1466C214.136 89.3314 212.938 91.4599 212.502 92.7339C212.436 92.9266 212.378 92.0217 212.374 90.7235C212.37 89.426 212.279 87.672 212.173 86.8269C212.067 85.9818 212.035 85.1951 212.102 85.079C212.168 84.9629 212.158 84.9266 212.079 84.9984C212 85.0703 211.749 84.4098 211.521 83.5304C210.532 79.7023 209.264 77.7221 208.409 78.6685ZM65.0802 81.2629C65.0802 81.3475 65.1981 81.514 65.3422 81.6341C65.5231 81.7845 65.6041 81.7905 65.6041 81.6549C65.6041 81.5475 65.521 81.4589 65.4192 81.4589C65.3174 81.4589 65.2832 81.3804 65.3422 81.2844C65.4018 81.1884 65.367 81.1092 65.2651 81.1092C65.1639 81.1092 65.0802 81.1784 65.0802 81.2629ZM57.1876 85.079C57.4047 85.1206 57.7182 85.1193 57.8851 85.075C58.0519 85.0313 57.8743 84.9971 57.4904 84.9991C57.1065 85.0011 56.9705 85.0367 57.1876 85.079ZM95.2262 85.0837C95.6369 85.1206 96.2647 85.1199 96.6224 85.0823C96.9796 85.0448 96.6439 85.0145 95.8761 85.0152C95.1083 85.0159 94.8161 85.0468 95.2262 85.0837ZM97.5672 85.0468C97.7045 85.1844 98.9138 85.2038 99.0465 85.0709C99.1102 85.0072 98.7825 84.9555 98.3189 84.9555C97.8552 84.9555 97.5169 84.9964 97.5672 85.0468ZM132.825 85.0803C133.09 85.1206 133.483 85.1199 133.697 85.0783C133.911 85.0367 133.694 85.0038 133.215 85.0051C132.735 85.0065 132.559 85.0407 132.825 85.0803ZM145.646 85.0783C145.862 85.1199 146.215 85.1199 146.432 85.0783C146.647 85.0367 146.47 85.0025 146.039 85.0025C145.607 85.0025 145.431 85.0367 145.646 85.0783ZM148.089 85.0817C148.401 85.1206 148.911 85.1206 149.223 85.0817C149.535 85.0427 149.28 85.0112 148.656 85.0112C148.032 85.0112 147.777 85.0427 148.089 85.0817ZM81.394 90.2852C81.0101 90.4195 79.7934 90.7712 78.6899 91.0659C75.0953 92.0271 74.7335 92.2614 75.2555 93.2931C75.3915 93.5622 75.4813 93.9207 75.4545 94.0899C75.4277 94.2583 75.4786 94.351 75.5677 94.2959C75.6568 94.2409 75.6843 94.1227 75.6293 94.0328C75.4102 93.6784 75.9194 93.8999 76.503 94.4127L77.1194 94.9551V100.321C77.1194 104.371 77.0658 105.745 76.9017 105.923C76.7268 106.111 76.7268 106.133 76.9017 106.035C77.0631 105.943 77.1194 106.139 77.1194 106.795C77.1194 107.282 77.041 107.68 76.9452 107.68C76.8494 107.68 76.7704 107.763 76.7704 107.865C76.7704 107.967 76.8494 108.002 76.9452 107.942C77.0598 107.871 77.1194 109.559 77.1194 112.875C77.1194 118.593 77.1623 118.405 75.7238 119.025C74.6331 119.495 74.3141 120.039 74.7436 120.696C75.0565 121.175 75.6575 121.227 80.1378 121.167C81.3063 121.151 81.6433 121.198 81.5515 121.361C81.4583 121.527 81.4851 121.526 81.6654 121.358C81.9508 121.092 82.8774 121.067 82.8774 121.325C82.8774 121.427 82.9712 121.452 83.0851 121.381C83.1997 121.31 83.7678 121.233 84.348 121.209C85.213 121.174 85.467 121.091 85.7618 120.748C85.9594 120.518 86.2354 120.359 86.3748 120.396C86.5517 120.442 86.5363 120.387 86.3232 120.214C86.155 120.077 86.0177 119.887 86.0177 119.793C86.0177 119.503 85.4368 119.087 84.8586 118.964C83.5802 118.693 83.6673 119.711 83.6198 104.471C83.5695 88.4876 83.7243 89.4703 81.394 90.2852ZM194.124 90.2241C194.162 90.2859 193.663 90.4631 193.016 90.6181C188.575 91.6801 187.949 91.8969 187.65 92.4762C187.502 92.7621 187.456 92.9964 187.549 92.9964C187.641 92.9964 187.765 93.1494 187.824 93.3367C187.883 93.524 188.09 93.728 188.284 93.7898C188.493 93.8563 188.599 94.0012 188.543 94.1462C188.492 94.2805 188.506 94.3792 188.575 94.3651C188.849 94.308 189.3 94.6174 189.194 94.7893C189.124 94.9034 189.166 94.9202 189.306 94.8336C189.476 94.7289 189.429 94.6114 189.115 94.3577C188.772 94.0805 188.763 94.0529 189.062 94.1986C189.865 94.5893 189.845 94.2939 189.866 106.313C189.886 117.748 189.838 118.758 189.297 118.422C189.203 118.364 189.148 118.415 189.174 118.535C189.201 118.655 188.873 118.886 188.445 119.049C187.476 119.418 187.089 119.936 187.352 120.512C187.466 120.765 187.476 120.997 187.377 121.118C187.267 121.252 187.278 121.263 187.413 121.153C187.529 121.057 187.774 121.053 188.012 121.144C188.233 121.228 188.851 121.278 189.385 121.255C189.919 121.233 190.357 121.28 190.357 121.361C190.357 121.443 190.455 121.447 190.575 121.369C190.949 121.127 194.528 121.194 194.623 121.445C194.753 121.784 195.069 121.704 194.96 121.358C194.875 121.084 194.892 121.086 195.129 121.376C195.275 121.555 195.498 121.659 195.624 121.609C195.795 121.54 195.798 121.514 195.634 121.503C195.514 121.496 195.417 121.427 195.417 121.351C195.417 121.231 196.574 121.2 196.812 121.313C197.028 121.416 197.439 121.396 197.615 121.273C197.721 121.2 197.998 121.124 198.232 121.105C198.655 121.07 198.716 120.935 198.752 119.946C198.767 119.527 198.136 118.783 197.894 118.933C197.613 119.107 196.655 118.469 196.492 118C196.255 117.321 196.224 112.285 196.456 112.142C196.556 112.08 196.637 111.936 196.635 111.821C196.633 111.696 196.565 111.718 196.463 111.875C196.351 112.05 196.294 111.117 196.294 109.078C196.294 107.04 196.351 106.107 196.463 106.281C196.565 106.439 196.633 106.46 196.635 106.335C196.637 106.221 196.559 106.078 196.463 106.019C196.172 105.839 196.264 105.581 196.81 105.033C197.11 104.733 197.419 104.564 197.535 104.636C197.651 104.708 197.692 104.686 197.63 104.586C197.495 104.367 198.339 103.961 198.597 104.121C198.701 104.185 198.736 104.157 198.674 104.057C198.611 103.954 198.795 103.83 199.105 103.768C200.921 103.404 202.647 104.031 203.138 105.233C203.445 105.986 203.593 107.227 203.402 107.461C203.28 107.612 203.286 107.68 203.421 107.68C203.533 107.68 203.617 107.979 203.617 108.379C203.617 108.82 203.536 109.079 203.399 109.081C203.229 109.083 203.231 109.116 203.406 109.227C203.582 109.339 203.617 110.315 203.568 113.764C203.497 118.716 203.532 118.585 202.125 119.123C201.213 119.472 200.971 120.016 201.42 120.704C201.721 121.163 201.753 121.171 203.268 121.178C203.796 121.181 204.285 121.271 204.356 121.38C204.45 121.524 204.484 121.522 204.486 121.372C204.491 121.04 206.553 121.145 206.644 121.482C206.706 121.712 206.72 121.71 206.738 121.467C206.75 121.285 206.917 121.184 207.204 121.184C207.511 121.184 207.622 121.259 207.558 121.424C207.508 121.556 207.536 121.664 207.621 121.664C207.706 121.664 207.808 121.566 207.848 121.445C207.898 121.295 208.429 121.217 209.564 121.194C210.468 121.176 211.421 121.157 211.683 121.151C212.627 121.129 213.03 119.579 212.163 119.303C211.97 119.242 211.865 119.107 211.929 119.003C211.994 118.897 211.966 118.863 211.864 118.925C211.572 119.106 210.608 118.688 210.374 118.281C210.218 118.009 210.148 116.236 210.116 111.79C210.062 104.347 209.889 103.413 208.228 101.57C207.893 101.199 207.698 100.868 207.794 100.835C207.905 100.796 207.908 100.682 207.802 100.513C207.66 100.289 207.635 100.296 207.633 100.557C207.629 100.927 207.479 100.935 207.022 100.589C206.508 100.2 204.637 99.6626 203.637 99.6169C203.156 99.5948 202.802 99.5122 202.851 99.433C202.9 99.3538 202.813 99.2894 202.657 99.2894C202.502 99.2894 202.417 99.3572 202.468 99.4397C202.519 99.5229 202.139 99.6344 201.625 99.6874C201.11 99.7411 200.189 99.9942 199.579 100.251C198.969 100.507 198.375 100.723 198.259 100.731C198.144 100.739 198.089 100.811 198.139 100.892C198.188 100.972 198.164 101.037 198.084 101.037C198.004 101.037 197.572 101.374 197.124 101.786L196.31 102.536L196.295 98.1314C196.283 94.7108 196.329 93.7079 196.502 93.6381C196.676 93.5683 196.676 93.5448 196.507 93.5341C196.237 93.5173 196.217 92.7118 196.482 92.5473C196.614 92.4654 196.617 92.3923 196.493 92.3151C196.392 92.2526 196.292 91.7203 196.272 91.1323L196.233 90.063L195.144 90.0872C194.544 90.1006 194.085 90.1624 194.124 90.2241ZM161.352 90.5403C159.123 90.7269 157.828 91.9828 157.828 93.9576C157.828 96.6721 160.879 98.2496 163.333 96.8044C163.776 96.5433 164.201 96.3862 164.277 96.4547C164.353 96.5231 164.361 96.4862 164.296 96.3714C164.231 96.2573 164.335 95.9036 164.529 95.5847C164.723 95.2665 164.881 94.8685 164.882 94.7007C164.882 94.5322 164.956 94.3946 165.046 94.3946C165.136 94.3946 165.063 93.8636 164.885 93.2145C164.555 92.0177 163.494 90.7235 162.843 90.7235C162.706 90.7235 162.642 90.645 162.702 90.549C162.761 90.453 162.785 90.3859 162.755 90.4007C162.726 90.4148 162.094 90.4778 161.352 90.5403ZM65.1854 91.4518C65.235 91.5324 65.251 91.6015 65.2216 91.6062C64.1589 91.774 61.2418 91.766 61.2418 91.5948C61.2418 91.431 61.1768 91.4344 60.9671 91.6089C60.7393 91.7982 60.6649 91.7942 60.5336 91.5868C60.4183 91.4048 60.3741 91.3968 60.3721 91.5592C60.3688 91.8365 55.1247 91.7895 54.9196 91.5102C54.8413 91.4028 54.7903 91.4216 54.789 91.5592C54.7863 91.7901 52.5103 91.7217 52.1177 91.4787C52.0092 91.4116 51.9951 91.4572 52.0822 91.5982C52.186 91.7667 52.1311 91.8036 51.8765 91.7364C51.6856 91.6868 51.5227 91.7331 51.5154 91.8405C51.508 91.9472 51.4249 92.2802 51.3304 92.5795C51.108 93.2904 51.2353 93.4636 52.4554 94.1133C53.0858 94.449 53.5642 94.843 53.7076 95.1444C54.062 95.8901 54.2295 103.637 53.8959 103.849C53.7217 103.959 53.7143 104.004 53.8704 104.006C54.1243 104.01 54.1565 104.679 53.9213 105.052C53.8188 105.214 53.8269 105.39 53.9435 105.53C54.0533 105.663 54.0728 105.947 53.991 106.235C53.8034 106.9 53.79 107.042 53.8945 107.24C54.0319 107.501 54.0446 108.03 53.914 108.03C53.8497 108.03 53.7974 108.147 53.7974 108.291C53.7974 108.436 53.8631 108.554 53.9428 108.554C54.1505 108.554 54.1223 109.212 53.8966 109.635C53.7565 109.898 53.7565 109.962 53.8979 109.875C54.0372 109.788 54.0674 110.522 54.0058 112.52C53.9589 114.04 53.9233 115.822 53.9267 116.479C53.9354 118.079 53.0182 119.246 51.9609 118.982C51.8356 118.95 51.7814 118.954 51.8403 118.99C51.8993 119.026 51.7231 119.297 51.4484 119.591L50.9492 120.126L51.309 120.633C51.6621 121.13 51.7016 121.14 53.3585 121.156C60.3453 121.223 63.3449 121.175 63.5647 120.992C63.6966 120.883 63.8601 120.849 63.9278 120.918C63.9961 120.985 63.9955 120.894 63.9258 120.712C63.8414 120.492 63.8635 120.423 63.9928 120.503C64.3157 120.702 63.9003 119.509 63.56 119.257C63.3945 119.135 62.9771 118.959 62.632 118.866C61.899 118.668 61.1433 117.945 61.3376 117.629C61.4193 117.498 61.3979 117.459 61.2826 117.531C60.9811 117.718 60.8612 115.799 60.9235 111.787L60.9805 108.117L63.633 108.12C66.9542 108.125 67.0413 108.171 67.7441 110.305C68.315 112.038 68.7478 112.373 69.8627 111.944C70.4121 111.733 70.7296 103.052 70.2311 101.866C69.7642 100.755 68.4356 101.437 67.9197 103.054C67.3736 104.763 66.987 105.065 65.4246 104.997C64.7552 104.967 64.2079 105.009 64.2079 105.088C64.2079 105.281 62.8585 105.274 62.7392 105.081C62.6883 104.998 62.4491 104.967 62.2092 105.014C61.9687 105.059 61.5935 105.052 61.3751 104.998L60.9785 104.898L60.9805 99.9519C60.9831 94.4275 60.9496 94.5987 62.0283 94.5987C62.5081 94.5987 62.8136 94.6779 62.8149 94.8027C62.8169 94.9363 62.8678 94.9269 62.9643 94.7745C63.1352 94.504 64.8403 94.5913 64.7847 94.8672C64.766 94.9598 64.8598 95.0356 64.9931 95.0356C65.1264 95.0356 65.2202 94.9504 65.2015 94.8463C65.1485 94.5497 68.0637 94.7054 68.4081 95.0175C68.5608 95.1558 68.7391 95.2155 68.8047 95.1498C68.987 94.9672 70.1608 96.1862 70.059 96.452C70.0101 96.5802 70.0469 96.6379 70.14 96.5795C70.2338 96.5218 70.5139 96.9031 70.7611 97.428C71.5417 99.0792 72.284 99.8049 73.0224 99.6377C74.2867 99.3525 74.3383 99.0779 73.9014 94.9752C73.6247 92.3802 73.4773 91.9781 72.751 91.8324C72.4696 91.776 72.2773 91.6693 72.3229 91.5948C72.3684 91.521 72.1313 91.5223 71.7956 91.5982C71.4599 91.674 71.1444 91.6693 71.0934 91.5874C71.0432 91.5055 70.9058 91.4733 70.7893 91.5163C70.1199 91.7613 68.9025 91.719 69.0037 91.4539C69.0895 91.2303 69.0459 91.237 68.7692 91.4881C68.5474 91.6888 68.3907 91.7311 68.3149 91.6089C68.2366 91.482 68.0959 91.478 67.8754 91.5961C67.6443 91.7203 67.5264 91.7076 67.4641 91.5525C67.3944 91.3807 67.3736 91.3807 67.3622 91.5539C67.3548 91.674 67.1873 91.7727 66.9897 91.7727C66.7907 91.7727 66.6788 91.6935 66.7398 91.5948C66.8001 91.4975 66.9347 91.47 67.0386 91.5344C67.1545 91.6062 67.178 91.57 67.0982 91.4418C66.9997 91.2813 66.9106 91.2793 66.725 91.4337C66.5904 91.5458 66.3713 91.5948 66.2379 91.5438C66.1046 91.4921 65.907 91.5384 65.7998 91.6465C65.655 91.7915 65.6041 91.7727 65.6041 91.5747C65.6041 91.427 65.4896 91.3062 65.3495 91.3062C65.2102 91.3062 65.1365 91.372 65.1854 91.4518ZM97.1444 99.4155C97.4579 99.4545 97.929 99.4538 98.1909 99.4142C98.4529 99.3739 98.197 99.3424 97.6208 99.343C97.0452 99.3444 96.8308 99.3766 97.1444 99.4155ZM144.87 99.5256C144.907 99.7189 143.982 100.006 140.194 100.974C137.059 101.774 136.453 102.339 137.592 103.397C137.841 103.627 138.002 103.885 137.949 103.971C137.896 104.056 137.965 104.126 138.1 104.126C138.235 104.126 138.306 104.06 138.256 103.98C138.038 103.625 138.611 103.882 139.074 104.347L139.586 104.859L139.594 107.187C139.598 108.467 139.61 111.364 139.621 113.623C139.644 118.416 139.632 118.462 138.304 119.093C137.333 119.553 137.046 119.945 137.238 120.547C137.34 120.869 137.336 120.869 137.076 120.551C136.818 120.234 136.811 120.234 136.837 120.574C136.852 120.783 136.971 120.906 137.132 120.879C137.281 120.855 137.488 120.903 137.592 120.985C137.697 121.068 139.228 121.151 140.995 121.168C143.055 121.189 144.253 121.268 144.335 121.389C144.419 121.512 144.464 121.514 144.466 121.396C144.468 121.28 145.147 121.226 146.344 121.247C148.659 121.288 149.485 121.109 149.629 120.536C149.816 119.791 149.649 119.488 148.959 119.317C148.6 119.228 148.307 119.086 148.307 119.001C148.307 118.916 148.241 118.888 148.16 118.938C147.772 119.178 146.765 118.668 146.493 118.095C146.164 117.4 146.071 110.76 146.388 110.564C146.625 110.417 146.608 109.498 146.363 109.104C145.962 108.46 147.106 105.708 147.638 106.037C147.757 106.111 147.79 106.083 147.719 105.969C147.528 105.658 148.321 105.057 148.923 105.057C149.545 105.057 150.163 105.601 149.954 105.964C149.881 106.09 149.883 106.139 149.958 106.071C150.033 106.003 150.377 106.141 150.724 106.377C152.772 107.771 155.253 105.757 155.042 102.872C154.929 101.337 154.886 101.055 154.769 101.088C154.651 101.122 153.455 99.9317 153.488 99.8136C153.572 99.5102 150.709 99.6404 149.956 99.974C149.508 100.173 149.069 100.291 148.982 100.236C148.894 100.181 148.842 100.202 148.867 100.281C148.892 100.361 148.532 100.814 148.068 101.29C147.604 101.766 146.989 102.572 146.702 103.082C146.415 103.592 146.164 104.009 146.143 104.009C146.095 104.009 146.224 100.822 146.282 100.604C146.307 100.51 146.186 100.281 146.014 100.097C145.843 99.9116 145.739 99.7015 145.783 99.6283C145.828 99.5558 145.695 99.5411 145.488 99.5954C145.262 99.6545 145.155 99.6243 145.219 99.5209C145.277 99.4256 145.216 99.3471 145.081 99.3471C144.947 99.3471 144.852 99.4276 144.87 99.5256ZM173.896 99.4189C173.83 99.5263 173.855 99.6639 173.953 99.7243C174.231 99.8968 174.16 100.212 173.868 100.1C173.724 100.045 173.607 100.068 173.607 100.151C173.607 100.32 172.598 100.759 172.256 100.739C172.137 100.733 172.078 100.788 172.124 100.864C172.171 100.939 172.097 101.044 171.959 101.096C171.822 101.149 171.679 101.138 171.64 101.071C171.601 101.004 171.593 101.046 171.622 101.163C171.65 101.281 171.538 101.478 171.373 101.6C171.208 101.723 170.845 102.099 170.567 102.436C170.288 102.772 169.998 103.029 169.92 103.006C169.843 102.983 169.83 103.094 169.891 103.253C169.962 103.438 169.933 103.499 169.81 103.423C169.704 103.357 169.568 103.384 169.508 103.481C169.447 103.579 169.478 103.659 169.575 103.659C169.682 103.659 169.648 103.956 169.49 104.402C169.332 104.849 169.228 105.754 169.229 106.674C169.23 107.516 169.157 108.204 169.068 108.204C168.979 108.204 168.954 108.329 169.013 108.481C169.088 108.679 169.155 108.699 169.246 108.551C169.325 108.422 169.447 108.557 169.571 108.912C169.82 109.63 169.829 109.594 169.423 109.516C169.233 109.48 169.039 109.51 168.993 109.586C168.947 109.662 169.122 109.709 169.382 109.693C169.855 109.663 171.144 110.863 171.029 111.226C171.002 111.309 171.049 111.334 171.134 111.282C171.218 111.23 171.64 111.411 172.07 111.685C172.501 111.959 173.139 112.285 173.488 112.412C174.105 112.636 174.115 112.652 173.821 113.002C173.522 113.357 173.523 113.357 173.894 113.044C174.367 112.644 178.552 113.974 179.721 114.896C181.195 116.059 180.754 118.274 178.924 118.903C178.024 119.212 176.133 119.33 176.295 119.067C176.346 118.985 176.196 118.954 175.96 118.999C174.931 119.197 172.849 117.505 171.65 115.495C170.153 112.988 168.818 113.539 168.873 116.643C168.931 119.981 169.815 120.896 173.555 121.495C180.207 122.56 185.231 120.238 185.805 115.833C185.891 115.183 185.992 114.95 186.172 114.991C186.36 115.034 186.347 114.966 186.12 114.715C185.943 114.519 185.82 114.1 185.82 113.697C185.82 113.283 185.6 112.561 185.267 111.875C184.963 111.25 184.73 110.674 184.748 110.595C184.767 110.515 184.712 110.494 184.626 110.547C184.541 110.6 184.323 110.48 184.143 110.28C183.962 110.08 183.48 109.72 183.072 109.48C182.665 109.241 182.374 108.975 182.427 108.889C182.48 108.803 182.409 108.777 182.268 108.83C182.128 108.885 181.79 108.813 181.517 108.672C181.245 108.531 180.309 108.174 179.438 107.879C177.137 107.101 176.184 106.663 176.318 106.446C176.381 106.342 176.327 106.276 176.198 106.297C174.397 106.597 174.428 102.936 176.23 102.315C176.976 102.057 178.906 102.014 178.755 102.259C178.695 102.356 178.761 102.389 178.905 102.333C179.495 102.106 180.997 103.334 180.837 103.912C180.768 104.159 180.787 104.2 180.896 104.042C181.096 103.755 181.714 104.61 181.526 104.915C181.455 105.029 181.482 105.063 181.589 104.998C181.69 104.935 181.932 105.153 182.125 105.482C182.825 106.67 183.799 106.908 184.614 106.091C184.963 105.741 185.087 102.09 184.75 102.087C184.526 102.085 184.445 101.309 184.641 101.046C184.803 100.829 184.798 100.814 184.62 100.973C184.45 101.123 184.157 101.051 183.407 100.675C182.177 100.059 180.5 99.6532 179.016 99.6129L177.881 99.582L178.841 99.4639L179.8 99.3464L178.492 99.3296C177.719 99.3202 177.323 99.3686 177.526 99.4478C177.755 99.5377 177.406 99.6216 176.479 99.7008C175.715 99.7653 174.927 99.8626 174.729 99.9156C174.468 99.9854 174.32 99.9035 174.192 99.6176C174.082 99.3686 173.972 99.2954 173.896 99.4189ZM176.267 99.4095C176.436 99.4538 176.71 99.4538 176.878 99.4095C177.046 99.3659 176.909 99.3296 176.573 99.3296C176.237 99.3296 176.099 99.3659 176.267 99.4095ZM115.854 99.8035C115.134 99.9754 113.446 100.361 112.103 100.662C109.194 101.313 108.624 101.694 109.172 102.623C109.338 102.905 109.539 103.135 109.62 103.135C109.702 103.135 109.714 103.222 109.649 103.328C109.568 103.458 109.649 103.484 109.891 103.407C110.345 103.262 111.233 103.708 111.531 104.229C111.694 104.516 111.779 106.203 111.846 110.564C111.931 115.972 111.971 116.598 112.296 117.504C112.493 118.053 112.579 118.455 112.486 118.398C112.394 118.341 112.355 118.403 112.4 118.537C112.445 118.67 112.575 118.78 112.69 118.78C112.96 118.78 113.245 119.237 113.111 119.454C113.054 119.546 113.08 119.577 113.166 119.524C113.253 119.472 113.677 119.744 114.109 120.13C114.541 120.515 114.796 120.777 114.676 120.712C114.556 120.648 114.458 120.686 114.458 120.798C114.458 120.91 114.569 120.959 114.705 120.908C114.841 120.855 115.371 120.982 115.883 121.19C118.523 122.259 123.402 121.241 125.161 119.254C125.338 119.054 125.595 118.933 125.731 118.986C125.897 119.05 125.945 118.995 125.877 118.817C125.821 118.672 125.859 118.501 125.962 118.437C126.084 118.362 126.148 118.627 126.148 119.215C126.148 120.097 126.526 121.14 126.845 121.14C126.935 121.14 126.965 121.277 126.911 121.445C126.852 121.629 126.872 121.677 126.961 121.565C127.042 121.463 127.694 121.361 128.41 121.339C130.269 121.281 134.642 120.496 135.144 120.131C135.752 119.689 135.606 118.518 134.943 118.518C134.786 118.518 134.728 118.435 134.802 118.316C134.881 118.186 134.849 118.162 134.711 118.247C134.419 118.428 133.019 117.873 132.837 117.504C132.757 117.341 132.683 113.374 132.674 108.691C132.652 98.3751 132.972 99.2316 129.463 100.084C128.455 100.329 126.886 100.691 125.974 100.889C123.024 101.529 122.462 102.505 124.517 103.416C125.041 103.648 125.426 103.907 125.374 103.991C125.322 104.075 125.424 104.181 125.6 104.228C126.088 104.356 126.148 105.02 126.148 110.347C126.148 116.097 126.165 116.035 124.367 116.935C122.871 117.684 119.474 117.585 119.647 116.797C119.67 116.687 119.566 116.655 119.398 116.719C119.177 116.804 119.136 116.759 119.224 116.528C119.287 116.363 119.27 116.27 119.186 116.322C119.102 116.374 118.889 116.201 118.713 115.938C118.377 115.434 118.192 105.492 118.515 105.293C118.587 105.248 118.581 105.078 118.501 104.916C118.294 104.494 118.272 102.983 118.468 102.616C118.559 102.446 118.578 102.252 118.512 102.185C118.445 102.118 118.369 101.576 118.343 100.982C118.318 100.388 118.284 99.8176 118.267 99.7163C118.222 99.4283 117.286 99.4625 115.854 99.8035ZM173.132 99.7008C173.228 99.9861 173.607 100.042 173.607 99.77C173.607 99.6337 173.487 99.5223 173.34 99.5223C173.193 99.5223 173.1 99.6028 173.132 99.7008ZM95.2657 99.8062C93.5458 100.128 91.7703 100.976 90.2715 102.19C89.8762 102.51 89.4903 102.716 89.4146 102.648C89.3389 102.579 89.3255 102.609 89.3851 102.713C89.5338 102.975 89.0052 103.693 88.7707 103.548C88.6662 103.483 88.6267 103.503 88.6816 103.593C88.7948 103.777 87.6478 105.686 87.4522 105.64C87.3832 105.625 87.2873 105.657 87.2391 105.712C87.1915 105.768 87.2505 105.756 87.3704 105.687C87.6525 105.525 87.6451 105.632 87.3208 106.409C86.9657 107.26 86.5195 109.67 86.5356 110.652C86.545 111.232 86.5021 111.37 86.3728 111.176C86.1497 110.842 86.139 111.083 86.3594 111.484C86.4505 111.651 86.6515 112.457 86.8049 113.274C86.9584 114.09 87.3121 115.253 87.5909 115.856C87.8696 116.459 88.0531 117.069 87.9989 117.211C87.9446 117.353 87.9915 117.469 88.1034 117.469C88.2153 117.469 88.2595 117.371 88.2012 117.25C88.1429 117.13 88.2367 117.226 88.4089 117.465C89.3483 118.762 91.5405 120.611 92.1469 120.618C92.3365 120.62 92.3318 120.66 92.1247 120.809C91.903 120.969 91.909 120.983 92.1656 120.901C92.3318 120.847 92.8028 120.924 93.2122 121.071C95.0238 121.723 99.0418 121.897 100.906 121.405C101.466 121.257 101.989 121.177 102.07 121.226C102.149 121.276 102.241 121.251 102.273 121.169C102.305 121.089 102.895 120.728 103.583 120.367C108.648 117.716 110.733 109.851 107.657 105.002C107.364 104.54 107.17 104.085 107.227 103.993C107.283 103.901 107.265 103.844 107.186 103.866C107.107 103.888 106.516 103.382 105.872 102.742C105.227 102.101 104.459 101.452 104.165 101.3C103.853 101.139 103.679 100.941 103.749 100.828C103.818 100.716 103.79 100.682 103.683 100.749C103.58 100.812 102.881 100.615 102.129 100.31C100.655 99.7129 97.1377 99.4545 95.2657 99.8062ZM163.225 99.8351C161.483 100.388 157.252 101.394 156.976 101.322C156.795 101.274 156.688 101.276 156.738 101.326C156.787 101.376 156.677 101.567 156.493 101.751C155.875 102.37 156.153 103.122 157.2 103.657C158.469 104.305 158.427 104.045 158.427 111.207C158.427 115.812 158.368 117.757 158.218 118.086C157.995 118.576 157.131 119.124 156.851 118.952C156.758 118.894 156.682 118.93 156.682 119.031C156.682 119.134 156.566 119.217 156.425 119.217C156.07 119.217 155.667 119.901 155.674 120.491C155.676 120.76 155.72 120.938 155.772 120.886C155.823 120.835 155.976 120.885 156.111 120.998C156.271 121.131 157.183 121.207 158.703 121.215C160.45 121.224 161.028 121.281 160.967 121.437C160.92 121.562 160.989 121.607 161.14 121.549C161.279 121.496 161.393 121.377 161.393 121.286C161.393 121.09 165.965 121.159 166.113 121.356C166.166 121.427 166.467 121.269 166.783 121.006C167.687 120.25 167.521 119.62 166.251 118.986C164.778 118.25 164.843 118.709 164.818 108.801C164.792 98.8269 164.878 99.3108 163.225 99.8351ZM76.8112 100.862C76.8112 101.199 76.8467 101.337 76.891 101.168C76.9345 101 76.9345 100.724 76.891 100.557C76.8467 100.388 76.8112 100.526 76.8112 100.862ZM99.2274 102.87C99.4954 103.041 99.8987 103.387 100.124 103.638C100.616 104.188 101.31 105.498 101.014 105.314C100.878 105.231 100.835 105.271 100.892 105.427C100.94 105.56 101.065 105.651 101.169 105.628C101.414 105.574 102.124 107.956 102.023 108.487C101.98 108.71 102.005 108.857 102.076 108.812C102.277 108.688 102.467 112.008 102.338 113.373C102.137 115.483 101.676 117.045 101.32 116.824C101.217 116.761 101.198 116.804 101.273 116.925C101.443 117.201 100.89 118.039 100.64 117.884C100.533 117.818 100.494 117.843 100.555 117.941C100.896 118.494 98.546 119.498 97.8827 119.083C97.6985 118.968 97.4399 118.914 97.3092 118.964C96.3243 119.343 94.38 116.705 93.6805 114.043C92.6661 110.179 93.8594 102.624 95.3903 103.213C95.5236 103.264 95.59 103.237 95.5384 103.152C95.062 102.38 98.0931 102.149 99.2274 102.87ZM76.8112 105.057C76.8112 105.394 76.8467 105.532 76.891 105.363C76.9345 105.195 76.9345 104.92 76.891 104.752C76.8467 104.583 76.8112 104.721 76.8112 105.057ZM202.509 105.016C202.388 105.212 202.892 105.841 203.047 105.687C203.119 105.615 203.039 105.478 202.87 105.384C202.701 105.288 202.608 105.137 202.664 105.047C202.72 104.957 202.726 104.883 202.678 104.883C202.63 104.883 202.553 104.943 202.509 105.016ZM181.812 105.519C181.82 105.732 182.312 106.358 182.401 106.268C182.441 106.227 182.325 106.008 182.141 105.781C181.957 105.554 181.81 105.436 181.812 105.519ZM86.3078 106.707C86.2602 106.832 86.3627 106.909 86.555 106.895C87.0341 106.86 87.1326 106.689 86.7339 106.585C86.5443 106.535 86.3527 106.591 86.3078 106.707ZM125.712 109.149C125.712 109.957 125.771 110.582 125.843 110.537C125.915 110.493 125.974 109.831 125.974 109.068C125.974 108.304 125.915 107.68 125.843 107.68C125.771 107.68 125.712 108.341 125.712 109.149ZM64.0772 108.324C64.2454 108.369 64.5201 108.369 64.6876 108.324C64.8557 108.281 64.7184 108.244 64.3827 108.244C64.0464 108.244 63.909 108.281 64.0772 108.324ZM76.8146 108.816C76.8166 109.2 76.8521 109.337 76.8943 109.12C76.9358 108.902 76.9338 108.588 76.8903 108.42C76.8467 108.253 76.8126 108.431 76.8146 108.816ZM125.84 112.749C125.84 113.086 125.875 113.223 125.92 113.055C125.963 112.887 125.963 112.612 125.92 112.443C125.875 112.275 125.84 112.412 125.84 112.749ZM177.27 114.127C177.27 114.212 177.428 114.323 177.619 114.373C178.031 114.481 178.093 114.233 177.692 114.079C177.326 113.938 177.27 113.944 177.27 114.127ZM86.6053 114.809C86.4451 115.066 86.4807 115.154 86.811 115.31C87.1306 115.462 87.1922 115.452 87.1192 115.26C87.0689 115.129 86.9597 115.021 86.8773 115.021C86.7942 115.021 86.7721 114.903 86.8271 114.76C86.9644 114.402 86.8425 114.429 86.6053 114.809ZM176.791 118.988C176.959 119.031 177.233 119.031 177.402 118.988C177.569 118.944 177.432 118.908 177.096 118.908C176.76 118.908 176.623 118.944 176.791 118.988ZM125.823 119.771C125.81 119.931 125.749 120.206 125.686 120.383C125.599 120.63 125.623 120.657 125.788 120.504C125.907 120.395 125.968 120.12 125.925 119.893C125.882 119.665 125.836 119.61 125.823 119.771Z" fill="#6BAA6A"/>
<path fill-rule="evenodd" clip-rule="evenodd" d="M201.328 62.5461C198.229 64.1686 198.125 68.5619 201.151 70.1366C203.997 71.6181 207.455 69.4741 207.455 66.228C207.455 63.0986 204.111 61.0895 201.328 62.5461Z" fill="#FECB35"/>
</svg>
